<svg width="1em" height="1em" viewBox="0 0 20 20" xmlns="http://www.w3.org/2000/svg" xmlns:xlink="http://www.w3.org/1999/xlink" role="img"><defs><path d="M13.637 5.2a4.398 4.398 0 013.351 1.831c-1.307.75-2.073 2.214-1.964 3.753.11 1.538 1.076 2.871 2.476 3.416v.01c-.31.764-.689 1.494-1.134 2.183-.732 1.159-1.776 2.597-3.01 2.607-1.234.01-1.435-.766-3.01-.755-1.575.01-1.876.765-3.01.755-1.133-.01-2.307-1.314-3.04-2.42C2.23 13.34 2.02 9.544 3.293 7.527 4.06 6.17 5.434 5.297 6.955 5.2c1.365 0 2.217.765 3.341.765s1.766-.765 3.341-.765zm-.34-4.2a4.058 4.058 0 01-.854 2.917h-.04a3.459 3.459 0 01-2.689 1.417 3.724 3.724 0 01.913-2.855A4.06 4.06 0 0113.297 1z" id="apple-filled_svg__a"/></defs><use fill="currentColor" xlink:href="#apple-filled_svg__a" fill-rule="evenodd"/></svg>